<svg width="255" height="155" viewBox="0 0 255 155" fill="none" xmlns="http://www.w3.org/2000/svg">
<path d="M79.9309 71.7497L105.21 25.157L108.553 27.0871L79.9309 71.7497Z" fill="white"/>
<path d="M150.048 53.4758L103.456 28.1963L105.386 24.8533L150.048 53.4758Z" fill="white"/>
<circle cx="81.1566" cy="40.8505" r="6.31671" transform="rotate(-60 81.1566 40.8505)" fill="#DB1F48"/>
<path d="M174.901 25.7933L149.622 72.3859L146.279 70.4558L174.901 25.7933Z" fill="white"/>
<path d="M104.784 44.0672L151.376 69.3466L149.446 72.6897L104.784 44.0672Z" fill="white"/>
<circle cx="173.675" cy="56.6924" r="6.31671" transform="rotate(120 173.675 56.6924)" fill="#DB1F48"/>
<path d="M3.72656 133.586C3.80469 132.32 4.0625 131.359 4.5 130.703C4.95312 130.031 5.74219 129.695 6.86719 129.695C7.57031 129.695 8.17188 129.898 8.67188 130.305C9.17188 130.695 9.42188 131.242 9.42188 131.945C9.42188 132.352 9.38281 132.758 9.30469 133.164C9.22656 133.57 9.20312 133.992 9.23438 134.43C9.29688 134.961 9.53125 135.445 9.9375 135.883C10.3438 136.32 10.8594 136.703 11.4844 137.031C12.1094 137.344 12.8203 137.594 13.6172 137.781C14.4141 137.953 15.2266 138.039 16.0547 138.039C16.8984 138.039 17.7344 137.969 18.5625 137.828C19.4062 137.672 20.1641 137.391 20.8359 136.984C21.5234 136.578 22.0781 136.023 22.5 135.32C22.9219 134.617 23.1328 133.703 23.1328 132.578C23.1328 131.844 22.9531 131.156 22.5938 130.516C22.2344 129.859 21.7734 129.266 21.2109 128.734C20.6484 128.188 20.0234 127.695 19.3359 127.258C18.6641 126.82 18.0156 126.438 17.3906 126.109C16.5 125.656 15.5859 125.219 14.6484 124.797C13.7266 124.359 12.8203 123.906 11.9297 123.438C11.0547 122.953 10.2188 122.43 9.42188 121.867C8.64062 121.289 7.95312 120.617 7.35938 119.852C6.76562 119.086 6.29688 118.203 5.95312 117.203C5.60938 116.188 5.4375 115.016 5.4375 113.688C5.4375 112.203 5.75 110.922 6.375 109.844C7.01562 108.766 7.85156 107.875 8.88281 107.172C9.91406 106.469 11.0938 105.953 12.4219 105.625C13.7656 105.281 15.1406 105.109 16.5469 105.109C17.7969 105.109 19.0078 105.219 20.1797 105.438C21.3516 105.656 22.3984 106.016 23.3203 106.516C24.2422 107 25.0078 107.656 25.6172 108.484C26.2266 109.297 26.5938 110.297 26.7188 111.484C26.75 111.922 26.6953 112.312 26.5547 112.656C26.4141 112.984 26.2188 113.266 25.9688 113.5C25.7188 113.719 25.4297 113.891 25.1016 114.016C24.7891 114.125 24.4688 114.18 24.1406 114.18C23.6406 114.18 23.2188 114.102 22.875 113.945C22.5312 113.789 22.25 113.594 22.0312 113.359C21.8125 113.125 21.6484 112.859 21.5391 112.562C21.4297 112.266 21.3594 111.977 21.3281 111.695C21.0938 111.32 20.7891 111.016 20.4141 110.781C20.0391 110.531 19.6172 110.336 19.1484 110.195C18.6953 110.039 18.2188 109.938 17.7188 109.891C17.2188 109.828 16.7344 109.797 16.2656 109.797C15.6094 109.797 14.9531 109.867 14.2969 110.008C13.6562 110.148 13.0703 110.375 12.5391 110.688C12.0078 111 11.5781 111.398 11.25 111.883C10.9219 112.367 10.7578 112.961 10.7578 113.664C10.7578 114.492 10.9531 115.227 11.3438 115.867C11.7344 116.508 12.2266 117.078 12.8203 117.578C13.4141 118.078 14.0703 118.531 14.7891 118.938C15.5234 119.344 16.2344 119.719 16.9219 120.062C17.75 120.484 18.6094 120.938 19.5 121.422C20.3906 121.891 21.2578 122.406 22.1016 122.969C22.9609 123.516 23.7734 124.117 24.5391 124.773C25.3047 125.43 25.9766 126.164 26.5547 126.977C27.1328 127.773 27.5859 128.648 27.9141 129.602C28.2578 130.555 28.4297 131.609 28.4297 132.766C28.4297 134 28.2578 135.102 27.9141 136.07C27.5703 137.039 27.1016 137.891 26.5078 138.625C25.9141 139.359 25.2188 139.984 24.4219 140.5C23.625 141.016 22.7656 141.438 21.8438 141.766C20.9219 142.094 19.9609 142.328 18.9609 142.469C17.9766 142.625 16.9922 142.703 16.0078 142.703C15.1797 142.703 14.2891 142.633 13.3359 142.492C12.3984 142.352 11.4688 142.133 10.5469 141.836C9.625 141.523 8.74219 141.133 7.89844 140.664C7.07031 140.18 6.33594 139.602 5.69531 138.93C5.07031 138.242 4.57812 137.461 4.21875 136.586C3.85938 135.695 3.69531 134.695 3.72656 133.586ZM36.6562 140.312C36.6562 140.031 36.6641 139.742 36.6797 139.445C36.7109 139.148 36.7422 138.852 36.7734 138.555C36.8203 138.148 36.8672 137.695 36.9141 137.195C36.9609 136.695 36.9844 136.141 36.9844 135.531C36.9844 134.609 36.9766 133.422 36.9609 131.969C36.9609 130.516 36.9531 128.906 36.9375 127.141C36.9219 125.359 36.9062 123.492 36.8906 121.539C36.875 119.57 36.8516 117.617 36.8203 115.68C36.8047 113.727 36.7812 111.852 36.75 110.055C36.7344 108.258 36.7188 106.641 36.7031 105.203C36.4688 105.172 36.2188 105.188 35.9531 105.25C35.6875 105.297 35.375 105.32 35.0156 105.32C34.7344 105.32 34.4453 105.273 34.1484 105.18C33.8672 105.086 33.6016 104.945 33.3516 104.758C33.1172 104.555 32.9219 104.289 32.7656 103.961C32.625 103.633 32.5547 103.234 32.5547 102.766C32.5547 101.938 32.7734 101.312 33.2109 100.891C33.6484 100.453 34.1719 100.234 34.7812 100.234C35.0312 100.234 35.2734 100.266 35.5078 100.328C35.7422 100.391 35.9922 100.422 36.2578 100.422C36.5703 100.422 36.8906 100.414 37.2188 100.398C37.5469 100.383 37.8672 100.359 38.1797 100.328C38.5234 100.297 38.8594 100.273 39.1875 100.258C39.5312 100.242 39.8281 100.234 40.0781 100.234C40.7344 100.234 41.2656 100.453 41.6719 100.891C42.0938 101.312 42.3047 101.898 42.3047 102.648C42.3047 104.664 42.2812 106.719 42.2344 108.812C42.2031 110.891 42.1719 113.133 42.1406 115.539L42.0938 116.734C42.6406 116.25 43.2422 115.789 43.8984 115.352C44.5547 114.914 45.25 114.531 45.9844 114.203C46.7344 113.875 47.5078 113.617 48.3047 113.43C49.1016 113.227 49.9141 113.125 50.7422 113.125C52.7109 113.125 54.4609 113.414 55.9922 113.992C57.5391 114.57 58.8438 115.453 59.9062 116.641C60.9688 117.828 61.7734 119.32 62.3203 121.117C62.8828 122.914 63.1641 125.039 63.1641 127.492C63.1641 128.211 63.1094 128.961 63 129.742C62.9062 130.523 62.7656 131.305 62.5781 132.086C62.3906 132.867 62.1641 133.641 61.8984 134.406C61.6328 135.156 61.3359 135.859 61.0078 136.516C61.3516 136.391 61.6953 136.281 62.0391 136.188C62.3828 136.078 62.7578 136.023 63.1641 136.023C63.6797 136.023 64.1016 136.125 64.4297 136.328C64.7578 136.516 65.0078 136.742 65.1797 137.008C65.3672 137.273 65.4922 137.547 65.5547 137.828C65.6172 138.109 65.6484 138.328 65.6484 138.484C65.6484 139.078 65.4688 139.586 65.1094 140.008C64.7656 140.43 64.3203 140.734 63.7734 140.922C63.3203 141.094 62.75 141.281 62.0625 141.484C61.375 141.688 60.6797 141.875 59.9766 142.047C59.2891 142.219 58.6406 142.367 58.0312 142.492C57.4219 142.617 56.9609 142.68 56.6484 142.68C55.6328 142.68 54.9062 142.438 54.4688 141.953C54.0469 141.453 53.8359 140.812 53.8359 140.031C53.8359 139.609 53.9531 139.148 54.1875 138.648C54.4219 138.148 54.7031 137.688 55.0312 137.266C55.4375 136.688 55.8125 136.023 56.1562 135.273C56.5 134.508 56.7969 133.703 57.0469 132.859C57.3125 132 57.5156 131.117 57.6562 130.211C57.8125 129.289 57.8906 128.383 57.8906 127.492C57.8906 126.023 57.75 124.711 57.4688 123.555C57.2031 122.398 56.7734 121.422 56.1797 120.625C55.5859 119.828 54.8125 119.227 53.8594 118.82C52.9219 118.398 51.7812 118.188 50.4375 118.188C49.6562 118.188 48.875 118.328 48.0938 118.609C47.3125 118.891 46.5547 119.266 45.8203 119.734C45.0859 120.188 44.3906 120.719 43.7344 121.328C43.0938 121.922 42.5234 122.531 42.0234 123.156C41.9922 125.484 41.9688 127.805 41.9531 130.117C41.9531 132.414 41.9688 134.766 42 137.172C42.0312 137.172 42.0703 137.164 42.1172 137.148C42.1797 137.133 42.3125 137.086 42.5156 137.008C42.6562 136.945 42.8047 136.891 42.9609 136.844C43.1328 136.797 43.3203 136.766 43.5234 136.75C44.3672 136.719 45.0078 136.922 45.4453 137.359C45.8984 137.781 46.125 138.391 46.125 139.188C46.125 139.469 46.0703 139.75 45.9609 140.031C45.8672 140.297 45.7344 140.539 45.5625 140.758C45.3906 140.977 45.1875 141.164 44.9531 141.32C44.7188 141.477 44.4609 141.586 44.1797 141.648C43.8672 141.711 43.5547 141.781 43.2422 141.859C42.9453 141.922 42.6406 141.984 42.3281 142.047C42.0469 142.109 41.7422 142.18 41.4141 142.258C41.1016 142.336 40.7891 142.406 40.4766 142.469C40.1797 142.531 39.9062 142.578 39.6562 142.609C39.4062 142.656 39.2031 142.68 39.0469 142.68C38.125 142.68 37.4922 142.477 37.1484 142.07C36.8203 141.664 36.6562 141.078 36.6562 140.312ZM70.9922 127.938C70.9922 125.812 71.3516 123.836 72.0703 122.008C72.7891 120.18 73.7734 118.594 75.0234 117.25C76.2891 115.906 77.7656 114.852 79.4531 114.086C81.1562 113.32 82.9922 112.938 84.9609 112.938C85.9609 112.938 86.9141 113.055 87.8203 113.289C88.7422 113.523 89.5938 113.836 90.375 114.227C91.1719 114.602 91.8828 115.031 92.5078 115.516C93.1484 116 93.6953 116.5 94.1484 117.016C94.1328 116.797 94.125 116.562 94.125 116.312C94.125 116.062 94.125 115.844 94.125 115.656C94.125 115.266 94.1797 114.906 94.2891 114.578C94.3984 114.234 94.5703 113.938 94.8047 113.688C95.0391 113.438 95.3359 113.242 95.6953 113.102C96.0547 112.945 96.4922 112.867 97.0078 112.867C97.4453 112.867 97.8359 112.953 98.1797 113.125C98.5391 113.281 98.8438 113.484 99.0938 113.734C99.3438 113.969 99.5391 114.227 99.6797 114.508C99.8203 114.773 99.8906 115.016 99.8906 115.234C99.8906 115.766 99.8594 116.305 99.7969 116.852C99.75 117.383 99.7109 117.922 99.6797 118.469C99.6797 120.188 99.6641 121.711 99.6328 123.039C99.6172 124.352 99.5938 125.562 99.5625 126.672C99.5312 127.422 99.5078 128.203 99.4922 129.016C99.4766 129.812 99.4688 130.547 99.4688 131.219C99.4688 132.734 99.4688 133.938 99.4688 134.828C99.4688 135.719 99.5078 136.367 99.5859 136.773C99.7266 136.742 99.9297 136.672 100.195 136.562C100.477 136.453 100.734 136.336 100.969 136.211C101.188 136.133 101.406 136.055 101.625 135.977C101.844 135.898 102.117 135.859 102.445 135.859C102.82 135.859 103.148 135.945 103.43 136.117C103.711 136.273 103.945 136.484 104.133 136.75C104.336 137 104.484 137.289 104.578 137.617C104.672 137.93 104.719 138.234 104.719 138.531C104.719 138.953 104.617 139.383 104.414 139.82C104.211 140.242 103.836 140.547 103.289 140.734C102.82 140.906 102.344 141.086 101.859 141.273C101.375 141.461 100.883 141.633 100.383 141.789C99.8984 141.945 99.4062 142.078 98.9062 142.188C98.4219 142.297 97.9219 142.352 97.4062 142.352C96.7969 142.352 96.2969 142.227 95.9062 141.977C95.5156 141.727 95.2109 141.406 94.9922 141.016C94.7734 140.609 94.6172 140.164 94.5234 139.68C94.4297 139.195 94.375 138.719 94.3594 138.25C93.875 138.859 93.2891 139.43 92.6016 139.961C91.9141 140.492 91.1562 140.961 90.3281 141.367C89.5 141.773 88.6094 142.094 87.6562 142.328C86.7188 142.562 85.75 142.68 84.75 142.68C82.7188 142.68 80.8594 142.312 79.1719 141.578C77.4844 140.828 76.0312 139.797 74.8125 138.484C73.6094 137.156 72.6719 135.594 72 133.797C71.3281 132 70.9922 130.047 70.9922 127.938ZM76.3828 127.938C76.3828 129.203 76.5703 130.422 76.9453 131.594C77.3359 132.766 77.8906 133.805 78.6094 134.711C79.3438 135.602 80.2422 136.312 81.3047 136.844C82.3672 137.375 83.5703 137.641 84.9141 137.641C86.2422 137.641 87.4453 137.383 88.5234 136.867C89.6016 136.352 90.5391 135.68 91.3359 134.852C92.1484 134.023 92.8125 133.102 93.3281 132.086C93.8438 131.055 94.1953 130.023 94.3828 128.992V126.93C94.2109 125.977 93.8828 124.969 93.3984 123.906C92.9297 122.844 92.3047 121.867 91.5234 120.977C90.7578 120.07 89.8359 119.328 88.7578 118.75C87.6797 118.156 86.4609 117.859 85.1016 117.859C83.8203 117.859 82.6484 118.125 81.5859 118.656C80.5234 119.172 79.6016 119.891 78.8203 120.812C78.0547 121.719 77.4531 122.781 77.0156 124C76.5938 125.219 76.3828 126.531 76.3828 127.938ZM112.312 140.266C112.312 139.984 112.32 139.695 112.336 139.398C112.367 139.102 112.398 138.812 112.43 138.531C112.477 138.109 112.523 137.648 112.57 137.148C112.617 136.648 112.641 136.086 112.641 135.461C112.641 134.242 112.633 133.094 112.617 132.016C112.617 130.922 112.602 129.797 112.57 128.641C112.57 128.609 112.57 128.562 112.57 128.5C112.57 128.422 112.562 128.273 112.547 128.055C112.547 127.836 112.539 127.516 112.523 127.094C112.523 126.672 112.516 126.078 112.5 125.312C112.484 124.547 112.461 123.594 112.43 122.453C112.414 121.297 112.391 119.891 112.359 118.234C112.156 118.266 111.914 118.297 111.633 118.328C111.367 118.344 111.047 118.352 110.672 118.352C110.391 118.352 110.102 118.305 109.805 118.211C109.523 118.117 109.258 117.977 109.008 117.789C108.773 117.586 108.578 117.328 108.422 117.016C108.281 116.688 108.211 116.289 108.211 115.82C108.211 114.977 108.422 114.344 108.844 113.922C109.281 113.484 109.812 113.266 110.438 113.266C110.688 113.266 110.93 113.297 111.164 113.359C111.398 113.422 111.648 113.453 111.914 113.453C112.227 113.453 112.547 113.445 112.875 113.43C113.203 113.414 113.523 113.391 113.836 113.359C114.18 113.328 114.516 113.305 114.844 113.289C115.188 113.273 115.492 113.266 115.758 113.266C116.398 113.266 116.93 113.477 117.352 113.898C117.773 114.32 117.984 114.914 117.984 115.68C117.984 115.867 117.977 116.086 117.961 116.336C117.961 116.586 117.945 116.828 117.914 117.062C118.445 116.547 119.047 116.055 119.719 115.586C120.391 115.117 121.117 114.703 121.898 114.344C122.695 113.969 123.547 113.672 124.453 113.453C125.359 113.234 126.32 113.125 127.336 113.125C129.32 113.125 131.055 113.453 132.539 114.109C134.039 114.75 135.289 115.688 136.289 116.922C137.305 118.141 138.062 119.641 138.562 121.422C139.078 123.203 139.336 125.227 139.336 127.492C139.336 128.18 139.289 128.898 139.195 129.648C139.102 130.398 138.969 131.148 138.797 131.898C138.641 132.648 138.445 133.398 138.211 134.148C137.992 134.883 137.742 135.578 137.461 136.234C137.82 136.125 138.164 136.031 138.492 135.953C138.82 135.875 139.094 135.82 139.312 135.789C141.062 135.617 141.938 136.414 141.938 138.18C141.938 138.398 141.914 138.641 141.867 138.906C141.82 139.156 141.727 139.406 141.586 139.656C141.445 139.891 141.25 140.117 141 140.336C140.75 140.539 140.43 140.711 140.039 140.852L137.508 141.438C136.727 141.672 136.094 141.867 135.609 142.023C135.141 142.195 134.742 142.328 134.414 142.422C134.102 142.531 133.836 142.602 133.617 142.633C133.398 142.68 133.156 142.695 132.891 142.68C132.516 142.68 132.188 142.586 131.906 142.398C131.625 142.227 131.391 142.008 131.203 141.742C131.016 141.461 130.875 141.156 130.781 140.828C130.688 140.5 130.641 140.18 130.641 139.867C130.641 139.367 130.711 138.859 130.852 138.344C130.992 137.828 131.242 137.359 131.602 136.938C132.039 136.375 132.406 135.742 132.703 135.039C133.016 134.336 133.266 133.578 133.453 132.766C133.641 131.953 133.773 131.102 133.852 130.211C133.945 129.32 133.992 128.414 133.992 127.492C133.992 126.43 133.875 125.352 133.641 124.258C133.422 123.148 133.039 122.148 132.492 121.258C131.961 120.352 131.25 119.617 130.359 119.055C129.484 118.477 128.383 118.188 127.055 118.188C126.133 118.188 125.227 118.336 124.336 118.633C123.461 118.914 122.617 119.297 121.805 119.781C121.008 120.25 120.258 120.789 119.555 121.398C118.852 122.008 118.234 122.633 117.703 123.273C117.688 123.977 117.672 124.688 117.656 125.406C117.656 126.109 117.656 126.82 117.656 127.539C117.625 128.758 117.602 129.969 117.586 131.172C117.57 132.375 117.562 133.594 117.562 134.828C117.562 135.188 117.562 135.555 117.562 135.93C117.562 136.289 117.578 136.672 117.609 137.078L118.242 136.891C118.414 136.844 118.578 136.805 118.734 136.773C118.906 136.727 119.055 136.703 119.18 136.703C120.023 136.703 120.664 136.914 121.102 137.336C121.539 137.742 121.758 138.344 121.758 139.141C121.758 139.734 121.641 140.211 121.406 140.57C121.172 140.914 120.875 141.188 120.516 141.391C120.156 141.578 119.758 141.711 119.32 141.789C118.898 141.867 118.484 141.93 118.078 141.977C117.859 142.008 117.648 142.031 117.445 142.047C117.242 142.078 117.07 142.117 116.93 142.164C116.43 142.305 116 142.422 115.641 142.516C115.281 142.625 114.969 142.68 114.703 142.68C113.781 142.68 113.148 142.469 112.805 142.047C112.477 141.625 112.312 141.031 112.312 140.266ZM149.367 147.977C149.367 147.617 149.422 147.258 149.531 146.898C149.656 146.539 149.82 146.219 150.023 145.938C150.242 145.656 150.5 145.422 150.797 145.234C151.109 145.062 151.445 144.977 151.805 144.977C152.07 144.977 152.391 145.031 152.766 145.141C153.156 145.25 153.477 145.406 153.727 145.609C154.117 145.969 154.531 146.328 154.969 146.688C155.422 147.047 155.93 147.367 156.492 147.648C157.055 147.93 157.688 148.156 158.391 148.328C159.109 148.516 159.945 148.609 160.898 148.609C161.836 148.609 162.805 148.438 163.805 148.094C164.82 147.75 165.742 147.242 166.57 146.57C167.414 145.898 168.102 145.062 168.633 144.062C169.18 143.062 169.453 141.906 169.453 140.594C169.453 140.375 169.445 140.141 169.43 139.891C169.414 139.625 169.406 139.367 169.406 139.117C169 139.617 168.523 140.086 167.977 140.523C167.43 140.961 166.789 141.344 166.055 141.672C165.32 141.984 164.469 142.227 163.5 142.398C162.547 142.586 161.453 142.68 160.219 142.68C158.203 142.68 156.352 142.312 154.664 141.578C152.977 140.828 151.523 139.797 150.305 138.484C149.086 137.156 148.133 135.594 147.445 133.797C146.758 132 146.406 130.047 146.391 127.938C146.359 125.688 146.695 123.656 147.398 121.844C148.117 120.016 149.109 118.461 150.375 117.18C151.641 115.883 153.133 114.883 154.852 114.18C156.57 113.477 158.438 113.125 160.453 113.125C162.594 113.125 164.445 113.438 166.008 114.062C167.57 114.688 168.898 115.602 169.992 116.805C170.07 116.555 170.172 116.312 170.297 116.078C170.422 115.828 170.578 115.609 170.766 115.422C170.969 115.234 171.195 115.086 171.445 114.977C171.711 114.852 172.023 114.789 172.383 114.789C172.914 114.789 173.344 114.859 173.672 115C174.016 115.125 174.281 115.305 174.469 115.539C174.656 115.773 174.781 116.055 174.844 116.383C174.922 116.695 174.961 117.039 174.961 117.414C174.961 117.758 174.93 118.102 174.867 118.445C174.805 118.773 174.773 119.133 174.773 119.523C174.773 121.289 174.766 122.977 174.75 124.586C174.75 126.18 174.734 127.766 174.703 129.344C174.672 130.906 174.648 132.562 174.633 134.312C174.617 136.062 174.609 137.82 174.609 139.586C174.609 141.633 174.383 143.391 173.93 144.859C173.477 146.344 172.875 147.602 172.125 148.633C171.391 149.68 170.539 150.523 169.57 151.164C168.617 151.805 167.625 152.305 166.594 152.664C165.578 153.023 164.562 153.266 163.547 153.391C162.531 153.516 161.602 153.578 160.758 153.578C159.977 153.578 159.156 153.508 158.297 153.367C157.438 153.242 156.586 153.055 155.742 152.805C154.898 152.555 154.086 152.258 153.305 151.914C152.539 151.57 151.859 151.188 151.266 150.766C150.688 150.359 150.227 149.914 149.883 149.43C149.539 148.961 149.367 148.477 149.367 147.977ZM151.617 127.938C151.617 129.328 151.82 130.617 152.227 131.805C152.648 132.992 153.234 134.023 153.984 134.898C154.75 135.758 155.672 136.43 156.75 136.914C157.828 137.398 159.039 137.641 160.383 137.641C161.898 137.641 163.234 137.398 164.391 136.914C165.547 136.43 166.516 135.758 167.297 134.898C168.078 134.023 168.672 132.992 169.078 131.805C169.484 130.617 169.688 129.328 169.688 127.938C169.688 126.578 169.516 125.289 169.172 124.07C168.828 122.836 168.289 121.766 167.555 120.859C166.836 119.938 165.906 119.211 164.766 118.68C163.641 118.133 162.297 117.859 160.734 117.859C159.344 117.859 158.086 118.125 156.961 118.656C155.852 119.172 154.898 119.883 154.102 120.789C153.305 121.695 152.688 122.766 152.25 124C151.828 125.219 151.617 126.531 151.617 127.938ZM187.406 131.43C187.703 132.602 188.141 133.586 188.719 134.383C189.312 135.164 189.977 135.797 190.711 136.281C191.445 136.766 192.219 137.117 193.031 137.336C193.859 137.539 194.664 137.641 195.445 137.641C196.664 137.641 197.75 137.539 198.703 137.336C199.656 137.117 200.469 136.859 201.141 136.562C201.828 136.25 202.383 135.93 202.805 135.602C203.227 135.273 203.523 134.984 203.695 134.734C203.852 134.5 204.023 134.281 204.211 134.078C204.414 133.859 204.625 133.672 204.844 133.516C205.078 133.344 205.305 133.211 205.523 133.117C205.758 133.023 205.977 132.977 206.18 132.977C206.961 132.977 207.562 133.211 207.984 133.68C208.422 134.133 208.641 134.75 208.641 135.531C208.641 135.828 208.531 136.203 208.312 136.656C208.094 137.109 207.688 137.609 207.094 138.156C206.438 138.766 205.703 139.344 204.891 139.891C204.094 140.438 203.211 140.922 202.242 141.344C201.273 141.75 200.219 142.07 199.078 142.305C197.953 142.555 196.734 142.68 195.422 142.68C193.875 142.68 192.461 142.469 191.18 142.047C189.898 141.641 188.75 141.086 187.734 140.383C186.719 139.664 185.836 138.836 185.086 137.898C184.336 136.961 183.711 135.961 183.211 134.898C182.711 133.836 182.336 132.742 182.086 131.617C181.836 130.492 181.711 129.398 181.711 128.336C181.711 126.023 182.086 123.938 182.836 122.078C183.586 120.203 184.617 118.602 185.93 117.273C187.242 115.945 188.797 114.922 190.594 114.203C192.391 113.484 194.336 113.125 196.43 113.125C197.93 113.125 199.336 113.352 200.648 113.805C201.961 114.242 203.125 114.867 204.141 115.68C205.172 116.477 206.031 117.438 206.719 118.562C207.422 119.672 207.914 120.898 208.195 122.242C208.508 122.508 208.734 122.859 208.875 123.297C209.031 123.719 209.109 124.141 209.109 124.562C209.109 125.266 208.867 125.844 208.383 126.297C207.914 126.734 207.32 127.039 206.602 127.211C205.023 127.617 203.445 127.992 201.867 128.336C200.289 128.68 198.703 129.016 197.109 129.344C195.516 129.672 193.906 130.008 192.281 130.352C190.672 130.695 189.047 131.055 187.406 131.43ZM187.008 127.094C189.664 126.469 192.352 125.883 195.07 125.336C197.789 124.789 200.555 124.18 203.367 123.508C203.102 122.789 202.742 122.109 202.289 121.469C201.836 120.812 201.305 120.242 200.695 119.758C200.086 119.273 199.406 118.891 198.656 118.609C197.922 118.328 197.125 118.188 196.266 118.188C194.938 118.188 193.727 118.406 192.633 118.844C191.555 119.266 190.617 119.867 189.82 120.648C189.023 121.414 188.383 122.352 187.898 123.461C187.414 124.555 187.117 125.766 187.008 127.094ZM223.195 109.703C222.82 109.875 222.43 109.961 222.023 109.961C221.617 109.945 221.242 109.859 220.898 109.703C220.57 109.531 220.281 109.289 220.031 108.977C219.781 108.664 219.625 108.289 219.562 107.852C219.516 107.555 219.523 107.219 219.586 106.844C219.664 106.453 219.758 106.062 219.867 105.672C219.992 105.266 220.102 104.875 220.195 104.5C220.305 104.109 220.375 103.758 220.406 103.445C220.453 102.742 220.664 102.156 221.039 101.688C221.414 101.219 221.977 100.93 222.727 100.82C223.273 100.727 223.789 100.758 224.273 100.914C224.758 101.07 225.117 101.414 225.352 101.945C225.43 102.117 225.492 102.32 225.539 102.555C225.602 102.773 225.648 102.969 225.68 103.141C225.695 103.297 225.688 103.492 225.656 103.727C225.641 103.961 225.602 104.211 225.539 104.477C225.477 104.727 225.398 104.984 225.305 105.25C225.227 105.5 225.148 105.719 225.07 105.906C224.945 106.172 224.859 106.461 224.812 106.773C224.781 107.07 224.742 107.344 224.695 107.594C224.648 107.844 224.602 108.07 224.555 108.273C224.508 108.477 224.43 108.664 224.32 108.836C224.227 109.008 224.086 109.164 223.898 109.305C223.727 109.445 223.492 109.578 223.195 109.703ZM219.188 140.242C219.188 139.852 219.203 139.523 219.234 139.258C219.281 138.992 219.32 138.703 219.352 138.391C219.398 138.062 219.438 137.68 219.469 137.242C219.516 136.805 219.539 136.211 219.539 135.461C219.539 132.664 219.531 129.891 219.516 127.141C219.5 124.375 219.461 121.453 219.398 118.375C219.164 118.391 218.898 118.406 218.602 118.422C218.305 118.438 217.992 118.453 217.664 118.469C217.352 118.469 217.047 118.477 216.75 118.492C216.453 118.492 216.188 118.492 215.953 118.492C215.672 118.492 215.383 118.453 215.086 118.375C214.805 118.281 214.547 118.133 214.312 117.93C214.078 117.727 213.883 117.469 213.727 117.156C213.57 116.828 213.492 116.43 213.492 115.961C213.492 115.133 213.711 114.508 214.148 114.086C214.602 113.648 215.133 113.43 215.742 113.43C216.336 113.43 216.922 113.461 217.5 113.523C218.094 113.57 218.672 113.594 219.234 113.594C219.812 113.594 220.391 113.57 220.969 113.523C221.547 113.461 222.094 113.43 222.609 113.43C223.406 113.43 223.977 113.641 224.32 114.062C224.664 114.484 224.836 115.07 224.836 115.82C224.836 116.461 224.781 117.094 224.672 117.719C224.562 118.328 224.508 118.984 224.508 119.688C224.508 121.094 224.5 122.508 224.484 123.93C224.469 125.352 224.453 126.797 224.438 128.266C224.438 129.734 224.43 131.234 224.414 132.766C224.414 134.297 224.43 135.875 224.461 137.5C224.711 137.484 224.938 137.445 225.141 137.383C225.344 137.32 225.539 137.258 225.727 137.195C225.914 137.117 226.109 137.055 226.312 137.008C226.531 136.945 226.773 136.914 227.039 136.914C227.445 136.914 227.773 136.961 228.023 137.055C228.289 137.148 228.5 137.281 228.656 137.453C228.812 137.609 228.93 137.812 229.008 138.062C229.086 138.297 229.156 138.555 229.219 138.836C229.328 139.57 229.148 140.156 228.68 140.594C228.211 141.031 227.57 141.375 226.758 141.625C226.289 141.75 225.805 141.875 225.305 142C224.82 142.125 224.359 142.234 223.922 142.328C223.484 142.438 223.086 142.523 222.727 142.586C222.367 142.648 222.086 142.68 221.883 142.68C220.961 142.68 220.281 142.461 219.844 142.023C219.406 141.602 219.188 141.008 219.188 140.242ZM238.125 135.203L237.984 118.68L235.148 118.703C234.789 118.703 234.477 118.633 234.211 118.492C233.945 118.336 233.719 118.133 233.531 117.883C233.359 117.617 233.227 117.32 233.133 116.992C233.039 116.664 232.992 116.32 232.992 115.961C232.992 115.352 233.062 114.891 233.203 114.578C233.359 114.25 233.578 114.016 233.859 113.875C234.141 113.719 234.484 113.633 234.891 113.617C235.297 113.586 235.766 113.57 236.297 113.57H237.961V112.703C237.961 112.125 237.953 111.656 237.938 111.297C237.938 110.938 237.938 110.695 237.938 110.57C237.938 110.117 237.891 109.664 237.797 109.211C237.719 108.758 237.68 108.297 237.68 107.828C237.68 107.438 237.727 107.094 237.82 106.797C237.914 106.5 238.07 106.25 238.289 106.047C238.523 105.828 238.828 105.664 239.203 105.555C239.578 105.445 240.039 105.391 240.586 105.391C240.961 105.391 241.312 105.422 241.641 105.484C241.984 105.547 242.281 105.672 242.531 105.859C242.797 106.031 243.008 106.273 243.164 106.586C243.32 106.898 243.398 107.305 243.398 107.805C243.398 108.477 243.336 109.141 243.211 109.797C243.102 110.453 243.055 111.133 243.07 111.836V113.547C244.289 113.516 245.234 113.492 245.906 113.477C246.594 113.461 247.148 113.445 247.57 113.43C247.633 113.43 247.688 113.43 247.734 113.43C247.797 113.414 247.852 113.406 247.898 113.406C248.086 113.391 248.297 113.383 248.531 113.383C248.766 113.383 248.953 113.383 249.094 113.383C249.391 113.383 249.68 113.43 249.961 113.523C250.242 113.617 250.484 113.773 250.688 113.992C250.906 114.211 251.078 114.492 251.203 114.836C251.328 115.18 251.391 115.594 251.391 116.078C251.391 116.453 251.359 116.805 251.297 117.133C251.234 117.461 251.117 117.75 250.945 118C250.773 118.25 250.523 118.453 250.195 118.609C249.867 118.75 249.445 118.82 248.93 118.82C248.445 118.82 247.953 118.797 247.453 118.75C246.969 118.688 246.469 118.648 245.953 118.633L243.117 118.656L243.281 137.148C243.922 137.039 244.484 136.938 244.969 136.844C245.453 136.75 245.906 136.656 246.328 136.562C246.75 136.469 247.164 136.359 247.57 136.234C247.977 136.109 248.422 135.953 248.906 135.766C249.172 135.625 249.484 135.484 249.844 135.344C250.203 135.188 250.578 135.109 250.969 135.109C251.734 135.109 252.336 135.375 252.773 135.906C253.211 136.422 253.43 137.102 253.43 137.945C253.43 138.164 253.375 138.406 253.266 138.672C253.172 138.938 253.023 139.203 252.82 139.469C252.617 139.719 252.352 139.953 252.023 140.172C251.711 140.375 251.336 140.523 250.898 140.617C250.43 140.711 249.891 140.828 249.281 140.969C248.672 141.109 248.031 141.258 247.359 141.414C246.688 141.57 246.016 141.727 245.344 141.883C244.672 142.039 244.039 142.172 243.445 142.281C242.852 142.406 242.328 142.508 241.875 142.586C241.422 142.664 241.078 142.695 240.844 142.68C240.562 142.68 240.25 142.641 239.906 142.562C239.578 142.5 239.273 142.375 238.992 142.188C238.711 142.016 238.477 141.773 238.289 141.461C238.117 141.133 238.031 140.719 238.031 140.219L238.125 135.203Z" fill="white"/>
</svg>
